<?xml version="1.0" encoding="UTF-8"?>
<!-- Generator: visioncortex VTracer -->
<svg id="svg" version="1.1" xmlns="http://www.w3.org/2000/svg" style="display: block;" viewBox="0 0 1080 1080"><path d="M0 0 C1.65 0 3.3 0 5 0 C6.65 0.33 8.3 0.66 10 1 C12.64 1.66 15.28 2.32 18 3 C20.97 3.33 23.94 3.66 27 4 C31.455 4.99 31.455 4.99 36 6 C41.445 6.99 41.445 6.99 47 8 C49.97 8.33 52.94 8.66 56 9 C58.64 9.66 61.28 10.32 64 11 C66.97 11.33 69.94 11.66 73 12 C75.64 12.66 78.28 13.32 81 14 C83.97 14.33 86.94 14.66 90 15 C94.455 15.99 94.455 15.99 99 17 C104.445 17.99 104.445 17.99 110 19 C113.3 19.33 116.6 19.66 120 20 C121.98 20.495 121.98 20.495 124 21 C126.31 21.33 128.62 21.66 131 22 C132.65 22.33 134.3 22.66 136 23 C138.31 23.33 140.62 23.66 143 24 C144.98 25.485 144.98 25.485 147 27 C146.67 28.32 146.34 29.64 146 31 C140.39 34.3 134.78 37.6 129 41 C123.72 44.63 118.44 48.26 113 52 C108.71 55.3 104.42 58.6 100 62 C95.38 65.96 90.76 69.92 86 74 C78.74 81.26 71.48 88.52 64 96 C60.37 100.62 56.74 105.24 53 110 C50.03 113.63 47.06 117.26 44 121 C42.02 121.495 42.02 121.495 40 122 C38.35 118.04 36.7 114.08 35 110 C29.06 93.83 23.12 77.66 17 61 C7.595 35.26 7.595 35.26 -2 9 C-2.33 8.34 -2.66 7.68 -3 7 C-3 5.02 -3 3.04 -3 1 C-2.01 0.67 -1.02 0.34 0 0 Z M591 0 C593.64 0.33 596.28 0.66 599 1 C599 2.98 599 4.96 599 7 C596.03 14.92 593.06 22.84 590 31 C588.02 36.61 586.04 42.22 584 48 C579.38 60.54 574.76 73.08 570 86 C565.71 97.55 561.42 109.1 557 121 C555.68 121.33 554.36 121.66 553 122 C550.69 119.36 548.38 116.72 546 114 C542.37 109.38 538.74 104.76 535 100 C531.37 96.04 527.74 92.08 524 88 C515.09 79.09 515.09 79.09 506 70 C502.37 67.03 498.74 64.06 495 61 C489.72 57.04 484.44 53.08 479 49 C473.39 45.37 467.78 41.74 462 38 C457.71 35.36 453.42 32.72 449 30 C449.33 28.68 449.66 27.36 450 26 C450.99 25.34 451.98 24.68 453 24 C456.63 23.67 460.26 23.34 464 23 C464.33 22.67 464.66 22.34 465 22 C468.3 21.67 471.6 21.34 475 21 C476.65 20.67 478.3 20.34 480 20 C483.96 19.34 487.92 18.68 492 18 C495.63 17.34 499.26 16.68 503 16 C506.465 15.505 506.465 15.505 510 15 C511.65 14.67 513.3 14.34 515 14 C519.62 13.01 524.24 12.02 529 11 C533.455 10.505 533.455 10.505 538 10 C542.29 9.01 546.58 8.02 551 7 C554.3 6.67 557.6 6.34 561 6 C563.64 5.34 566.28 4.68 569 4 C571.97 3.505 571.97 3.505 575 3 C579.455 2.505 579.455 2.505 584 2 C586.31 1.34 588.62 0.68 591 0 Z M286 16 C293.92 16 301.84 16 310 16 C321.385 16.99 321.385 16.99 333 18 C333.66 18.33 334.32 18.66 335 19 C340.28 19.66 345.56 20.32 351 21 C356.28 22.32 361.56 23.64 367 25 C372.61 26.65 378.22 28.3 384 30 C390.93 32.64 397.86 35.28 405 38 C419.355 44.93 419.355 44.93 434 52 C440.6 55.96 447.2 59.92 454 64 C460.27 68.62 466.54 73.24 473 78 C477.95 82.29 482.9 86.58 488 91 C495.92 98.92 503.84 106.84 512 115 C515.63 119.62 519.26 124.24 523 129 C525.97 132.96 528.94 136.92 532 141 C535.96 147.27 539.92 153.54 544 160 C547.96 167.59 551.92 175.18 556 183 C558.64 189.27 561.28 195.54 564 202 C565.98 207.28 567.96 212.56 570 218 C571.485 223.94 571.485 223.94 573 230 C574.485 234.95 574.485 234.95 576 240 C576.33 244.62 576.66 249.24 577 254 C576.34 256.97 575.68 259.94 575 263 C574.34 264.98 573.68 266.96 573 269 C571.35 272.3 569.7 275.6 568 279 C563.545 284.445 563.545 284.445 559 290 C555.7 292.64 552.4 295.28 549 298 C545.37 299.65 541.74 301.3 538 303 C535.69 303.66 533.38 304.32 531 305 C530.01 305.33 529.02 305.66 528 306 C523.38 306 518.76 306 514 306 C509.05 304.515 509.05 304.515 504 303 C500.04 301.02 496.08 299.04 492 297 C489.69 294.69 487.38 292.38 485 290 C481.7 285.38 478.4 280.76 475 276 C473.35 272.7 471.7 269.4 470 266 C468.68 261.05 467.36 256.1 466 251 C464.35 246.05 462.7 241.1 461 236 C457.7 229.07 454.4 222.14 451 215 C448.03 210.38 445.06 205.76 442 201 C438.7 196.71 435.4 192.42 432 188 C428.37 184.04 424.74 180.08 421 176 C417.7 173.03 414.4 170.06 411 167 C402.585 161.06 402.585 161.06 394 155 C388.72 152.03 383.44 149.06 378 146 C372.72 143.69 367.44 141.38 362 139 C356.06 137.02 356.06 137.02 350 135 C346.37 134.01 342.74 133.02 339 132 C334.71 131.34 330.42 130.68 326 130 C322.7 129.34 319.4 128.68 316 128 C303.79 128 291.58 128 279 128 C276.03 128.66 273.06 129.32 270 130 C265.545 130.495 265.545 130.495 261 131 C257.04 131.99 253.08 132.98 249 134 C243.06 135.98 237.12 137.96 231 140 C220.605 144.95 220.605 144.95 210 150 C203.07 154.455 203.07 154.455 196 159 C192.04 161.97 188.08 164.94 184 168 C179.71 171.96 175.42 175.92 171 180 C168.03 183.3 165.06 186.6 162 190 C158.7 194.62 155.4 199.24 152 204 C149.36 208.29 146.72 212.58 144 217 C141.03 223.27 138.06 229.54 135 236 C133.68 239.96 132.36 243.92 131 248 C130.01 251.3 129.02 254.6 128 258 C127.505 261.96 127.505 261.96 127 266 C126.34 268.31 125.68 270.62 125 273 C124.67 274.65 124.34 276.3 124 278 C124 280.31 124 282.62 124 285 C123.67 285.99 123.34 286.98 123 288 C123 297.9 123 307.8 123 318 C123.33 318.66 123.66 319.32 124 320 C124 322.31 124 324.62 124 327 C124.99 331.95 124.99 331.95 126 337 C126.33 337.33 126.66 337.66 127 338 C127.33 340.97 127.66 343.94 128 347 C130.64 354.92 133.28 362.84 136 371 C139.3 377.6 142.6 384.2 146 391 C149.96 396.94 153.92 402.88 158 409 C161.63 413.29 165.26 417.58 169 422 C172.96 425.96 176.92 429.92 181 434 C185.29 437.3 189.58 440.6 194 444 C201.92 448.95 201.92 448.95 210 454 C215.28 456.64 220.56 459.28 226 462 C234.91 465.465 234.91 465.465 244 469 C249.94 470.485 249.94 470.485 256 472 C259.3 472.66 262.6 473.32 266 474 C268.97 474.33 271.94 474.66 275 475 C275.99 475.33 276.98 475.66 278 476 C281.63 476 285.26 476 289 476 C289.99 476.33 290.98 476.66 292 477 C296.29 477 300.58 477 305 477 C305.66 476.67 306.32 476.34 307 476 C310.96 476 314.92 476 319 476 C321.64 475.34 324.28 474.68 327 474 C329.97 473.67 332.94 473.34 336 473 C339.96 472.01 343.92 471.02 348 470 C353.94 468.02 359.88 466.04 366 464 C374.415 460.04 374.415 460.04 383 456 C388.28 452.7 393.56 449.4 399 446 C402.96 443.03 406.92 440.06 411 437 C414.3 434.03 417.6 431.06 421 428 C423.64 425.69 426.28 423.38 429 421 C430.98 418.36 432.96 415.72 435 413 C439.95 406.07 439.95 406.07 445 399 C447.97 394.05 450.94 389.1 454 384 C460.6 377.4 467.2 370.8 474 364 C478.95 360.37 483.9 356.74 489 353 C495.27 349.7 501.54 346.4 508 343 C513.61 341.02 519.22 339.04 525 337 C527.97 336.01 530.94 335.02 534 334 C537.63 333.34 541.26 332.68 545 332 C546.98 332 548.96 332 551 332 C551.66 331.67 552.32 331.34 553 331 C560.92 331 568.84 331 577 331 C577.99 331.33 578.98 331.66 580 332 C583.63 332.33 587.26 332.66 591 333 C595.29 333.99 599.58 334.98 604 336 C607.96 337.65 611.92 339.3 616 341 C620.62 342.98 625.24 344.96 630 347 C635.94 350.63 641.88 354.26 648 358 C652.29 361.63 656.58 365.26 661 369 C665.62 373.62 670.24 378.24 675 383 C678.63 387.95 682.26 392.9 686 398 C688.97 403.28 691.94 408.56 695 414 C697.31 419.28 699.62 424.56 702 430 C702.99 433.3 703.98 436.6 705 440 C706.32 445.28 707.64 450.56 709 456 C709 458.31 709 460.62 709 463 C709.33 463.66 709.66 464.32 710 465 C710 472.59 710 480.18 710 488 C709.67 488.99 709.34 489.98 709 491 C708.67 494.3 708.34 497.6 708 501 C706.68 505.95 705.36 510.9 704 516 C701.69 522.27 699.38 528.54 697 535 C692.545 543.415 692.545 543.415 688 552 C684.7 556.62 681.4 561.24 678 566 C674.37 569.96 670.74 573.92 667 578 C663.7 581.3 660.4 584.6 657 588 C651.39 591.96 645.78 595.92 640 600 C633.07 603.63 626.14 607.26 619 611 C612.4 613.31 605.8 615.62 599 618 C594.05 618.99 589.1 619.98 584 621 C581.36 621.33 578.72 621.66 576 622 C572.37 622 568.74 622 565 622 C563.68 621.34 562.36 620.68 561 620 C559.35 619.67 557.7 619.34 556 619 C553.03 617.68 550.06 616.36 547 615 C545.02 614.01 543.04 613.02 541 612 C536.71 608.04 532.42 604.08 528 600 C526.68 598.35 525.36 596.7 524 595 C522.02 590.71 520.04 586.42 518 582 C517.34 579.36 516.68 576.72 516 574 C516 568.39 516 562.78 516 557 C516.66 554.69 517.32 552.38 518 550 C520.31 545.38 522.62 540.76 525 536 C529.455 530.555 529.455 530.555 534 525 C538.29 522.03 542.58 519.06 547 516 C550.3 515.01 553.6 514.02 557 513 C557.99 512.34 558.98 511.68 560 511 C562.31 510.67 564.62 510.34 567 510 C570.63 509.34 574.26 508.68 578 508 C581.63 506.02 585.26 504.04 589 502 C590.65 500.02 592.3 498.04 594 496 C595.32 493.03 596.64 490.06 598 487 C598.33 485.68 598.66 484.36 599 483 C599 478.38 599 473.76 599 469 C597.68 465.37 596.36 461.74 595 458 C593.02 455.36 591.04 452.72 589 450 C586.69 448.35 584.38 446.7 582 445 C578.7 444.01 575.4 443.02 572 442 C566.72 442.33 561.44 442.66 556 443 C552.37 444.98 548.74 446.96 545 449 C542.36 451.31 539.72 453.62 537 456 C535.35 457.98 533.7 459.96 532 462 C530.68 464.31 529.36 466.62 528 469 C524.37 473.62 520.74 478.24 517 483 C514.03 486.3 511.06 489.6 508 493 C504.535 496.96 504.535 496.96 501 501 C497.04 504.96 493.08 508.92 489 513 C485.37 515.97 481.74 518.94 478 522 C474.04 525.3 470.08 528.6 466 532 C459.07 536.62 452.14 541.24 445 546 C439.06 549.3 433.12 552.6 427 556 C420.07 559.3 413.14 562.6 406 566 C397.75 568.97 389.5 571.94 381 575 C376.71 576.32 372.42 577.64 368 579 C361.565 580.485 361.565 580.485 355 582 C351.37 582.66 347.74 583.32 344 584 C341.03 584.66 338.06 585.32 335 586 C333.02 586 331.04 586 329 586 C328.34 586.33 327.68 586.66 327 587 C324.36 587 321.72 587 319 587 C318.34 587.33 317.68 587.66 317 588 C304.46 588 291.92 588 279 588 C278.01 587.67 277.02 587.34 276 587 C273.69 587 271.38 587 269 587 C268.01 586.67 267.02 586.34 266 586 C262.37 585.67 258.74 585.34 255 585 C252.03 584.34 249.06 583.68 246 583 C242.37 582.34 238.74 581.68 235 581 C230.38 579.68 225.76 578.36 221 577 C208.13 572.545 208.13 572.545 195 568 C189.06 565.36 183.12 562.72 177 560 C169.41 556.04 161.82 552.08 154 548 C148.06 544.04 142.12 540.08 136 536 C132.04 533.03 128.08 530.06 124 527 C119.71 523.37 115.42 519.74 111 516 C105.06 510.555 105.06 510.555 99 505 C94.05 500.05 94.05 500.05 89 495 C86.69 492.36 84.38 489.72 82 487 C76.06 479.575 76.06 479.575 70 472 C64.72 464.08 59.44 456.16 54 448 C50.04 440.74 46.08 433.48 42 426 C37.545 415.605 37.545 415.605 33 405 C30.03 396.42 27.06 387.84 24 379 C22.68 373.39 21.36 367.78 20 362 C19.01 358.04 18.02 354.08 17 350 C16.67 346.37 16.34 342.74 16 339 C15.67 338.34 15.34 337.68 15 337 C15 334.69 15 332.38 15 330 C14.67 329.34 14.34 328.68 14 328 C14 324.04 14 320.08 14 316 C13.67 315.34 13.34 314.68 13 314 C13 306.08 13 298.16 13 290 C13.33 289.01 13.66 288.02 14 287 C14 283.7 14 280.4 14 277 C14.33 276.01 14.66 275.02 15 274 C15 272.02 15 270.04 15 268 C15.66 264.7 16.32 261.4 17 258 C17.33 255.03 17.66 252.06 18 249 C18.99 245.04 19.98 241.08 21 237 C21.99 233.37 22.98 229.74 24 226 C25.65 220.72 27.3 215.44 29 210 C32.3 201.75 35.6 193.5 39 185 C42.63 177.74 46.26 170.48 50 163 C53.96 156.73 57.92 150.46 62 144 C65.3 139.38 68.6 134.76 72 130 C75.63 125.71 79.26 121.42 83 117 C86.465 113.04 86.465 113.04 90 109 C97.26 101.74 104.52 94.48 112 87 C115.63 84.03 119.26 81.06 123 78 C129.27 73.38 135.54 68.76 142 64 C149.26 59.71 156.52 55.42 164 51 C171.26 47.37 178.52 43.74 186 40 C192.6 37.36 199.2 34.72 206 32 C213.59 29.69 221.18 27.38 229 25 C233.95 24.01 233.95 24.01 239 23 C240.98 22.34 242.96 21.68 245 21 C249.95 20.505 249.95 20.505 255 20 C258.465 19.505 258.465 19.505 262 19 C262.33 18.67 262.66 18.34 263 18 C265.64 18 268.28 18 271 18 C271.33 17.67 271.66 17.34 272 17 C276.62 16.67 281.24 16.34 286 16 Z " transform="translate(242,243)" style="fill: #1577FF;"/></svg>